# xmcd
#
# Track frame offsets:
#	150
#	16277
#	28532
#	45325
#	58607
#	77170
#	88567
#	99622
#	113132
#	132232
#
# Disc length: 1976 seconds
# Revision: 2
# Processed by: cddbd v1.5.2PL0 Copyright (c) Steve Scherf et al.
# Submitted via: dBpowerAMP V12.0
#
DISCID=7307b60a
DTITLE=Buddy Ace - From me to You - Bobby Bland
DYEAR=1995
DGENRE=Blues
TTITLE0=Members Only
TTITLE1=Ain't Nothing You Can do
TTITLE2=Two Steps From The Blues
TTITLE3=That's The Way Love is
TTITLE4=Cry Cry Cry
TTITLE5=Don't Cry no More
TTITLE6=St. James Infirmary
TTITLE7=Farther up The Road
TTITLE8=Stormy Monday Blues
TTITLE9=I Pity The Fool
EXTD=
EXTT0=
EXTT1=
EXTT2=
EXTT3=
EXTT4=
EXTT5=
EXTT6=
EXTT7=
EXTT8=
EXTT9=
PLAYORDER=
